<?xml version="1.0" encoding="UTF-8"?><svg id="Capa_1" xmlns="http://www.w3.org/2000/svg" viewBox="0 0 537.43 517.33"><defs><style>.cls-1{stroke-width:0px;}</style></defs><path class="cls-1" d="m397.31,188.89c-9.27-8.07-19.74-15.14-31.16-20.92-6.8-3.44-10.05-11.31-7.4-18.45l34.67-93.24c3.6-9.68-3.56-19.98-13.89-19.98h-171.54c-10.46,0-17.63,10.55-13.77,20.28l35.08,88.5c2.98,7.52-.69,15.87-8.09,19.13-37.82,16.63-66.57,46.61-78.1,82.82-1.99,6.25-7.63,10.6-14.19,10.6h-6.27c-41.46,0-75.08,33.61-75.08,75.08v22.1c0,41.46,33.61,75.08,75.08,75.08h0c8.18,0,14.82,6.63,14.82,14.82v21.53c0,8.18,6.63,14.82,14.82,14.82h274.78c8.18,0,14.82-6.63,14.82-14.82v-183.43c0-36.65-17.05-69.82-44.56-93.9ZM116.82,398.11c-19.86.52-36.19-15.6-35.87-35.46l.57-38.99c.26-18.72,15.29-33.9,34-34.37l6.7-.19c8.34-.24,15.24,6.46,15.24,14.81v79.21c0,8.02-6.39,14.59-14.41,14.81l-6.23.17Zm253.98,21.78h-162.27c-8.18,0-14.82-6.63-14.82-14.82v-110.17c0-46.22,42.94-83.71,95.98-83.71,26.52,0,50.48,9.36,67.85,24.54,17.31,15.13,28.08,36.08,28.08,59.17v110.17c0,8.18-6.63,14.82-14.82,14.82Z"/><path class="cls-1" d="m300.26,234.26c7.03,17.54,14.46,54.97-13.72,110.24-5.66,11.11-9.19,23.24-10.13,35.68-.55,7.25-.25,14.87,1.94,21.3,1.11,3.26-1.6,6.51-4.98,5.91-14.72-2.62-43.71-13.23-43.86-56.25-.08-21.46,9.68-41.64,25.75-55.86,12.86-11.38,28.94-30.74,36.52-60.37,1.08-4.2,6.87-4.66,8.49-.63Z"/><path class="cls-1" d="m327.52,286.75c-2.51-3.02-7.46-1.59-7.92,2.32-1.76,14.86-6.42,42.73-17.47,55.94-14.59,17.44-15.7,47.81-7.5,61.04.89,1.44,2.53,2.21,4.21,2.06,7.94-.73,31.91-5.2,44.8-32.46,5.86-12.4,7.4-26.39,5.29-39.94-2.12-13.59-7.59-32.29-21.42-48.95Z"/></svg>