<?xml version="1.0" encoding="UTF-8"?><svg id="Capa_2" xmlns="http://www.w3.org/2000/svg" viewBox="0 0 120 120"><defs><style>.cls-1{fill:#fff;}.cls-2{fill:#d99b29;}.cls-3{fill:#431a10;}.cls-4{fill:#962b08;}</style></defs><g id="Capa_1-2"><circle class="cls-1" cx="60" cy="60" r="60"/><path class="cls-3" d="m92.48,102.77h-58.55v-38.13c0-14.11,13.11-25.54,29.28-25.54h0c16.17,0,29.28,11.43,29.28,25.54v38.13Z"/><path class="cls-1" d="m81.66,91.01h-36.91v-24.04c0-8.89,8.26-16.1,18.46-16.1h0c10.19,0,18.46,7.21,18.46,16.1v24.04Z"/><polygon class="cls-3" points="43.29 17.23 84.58 17.23 75.1 42.77 53.41 42.77 43.29 17.23"/><path class="cls-4" d="m64.09,53.11s6.27,8.19-1.49,23.4c-1.09,2.14-1.77,4.47-1.95,6.86-.15,1.93.02,3.99,1.02,5.4,0,0-10.01.11-10.05-10.98-.02-4.13,1.86-8.01,4.95-10.74,2.79-2.47,6.38-6.9,7.5-13.93Z"/><path class="cls-2" d="m69.14,63.96s-.56,9.09-3.54,12.65-3.04,9.91-1.14,12.16c0,0,6.12.07,9.12-6.27,1.13-2.38,1.42-5.08,1.02-7.68-.47-3.01-1.8-7.34-5.46-10.86Z"/><path class="cls-3" d="m40.7,59.8h-12.48c-6.4,0-11.59,5.19-11.59,11.59v9.95c0,6.4,5.19,11.59,11.59,11.59h12.48v-6.41s-10.75.29-10.75.29c-3.82.1-6.96-3-6.9-6.82l.11-7.49c.05-3.6,2.94-6.52,6.54-6.62l11-.3v-5.78Z"/></g></svg>