<?xml version="1.0" encoding="UTF-8"?><svg id="Capa_1" xmlns="http://www.w3.org/2000/svg" viewBox="0 0 1833.29 495.31"><defs><style>.cls-1{stroke-width:0px;}</style></defs><path class="cls-1" d="m406.39,185.11c-9.27-8.07-19.74-15.14-31.16-20.92-6.8-3.44-10.05-11.31-7.4-18.45l34.67-93.24c3.6-9.68-3.56-19.98-13.89-19.98h-171.54c-10.46,0-17.63,10.55-13.77,20.28l35.08,88.5c2.98,7.52-.69,15.87-8.09,19.13-37.82,16.63-66.57,46.61-78.1,82.82-1.99,6.25-7.63,10.6-14.19,10.6h-6.27c-41.46,0-75.08,33.61-75.08,75.08v22.1c0,41.46,33.61,75.08,75.08,75.08h0c8.18,0,14.82,6.63,14.82,14.82v21.53c0,8.18,6.63,14.82,14.82,14.82h274.78c8.18,0,14.82-6.63,14.82-14.82v-183.43c0-36.65-17.05-69.82-44.56-93.9ZM125.9,394.32c-19.86.52-36.19-15.6-35.87-35.46l.57-38.99c.26-18.72,15.29-33.9,34-34.37l6.7-.19c8.34-.24,15.24,6.46,15.24,14.81v79.21c0,8.02-6.39,14.59-14.41,14.81l-6.23.17Zm253.98,21.78h-162.27c-8.18,0-14.82-6.63-14.82-14.82v-110.17c0-46.22,42.94-83.71,95.98-83.71,26.52,0,50.48,9.36,67.85,24.54,17.31,15.13,28.08,36.08,28.08,59.17v110.17c0,8.18-6.63,14.82-14.82,14.82Z"/><path class="cls-1" d="m309.34,230.48c7.03,17.54,14.46,54.97-13.72,110.24-5.66,11.11-9.19,23.24-10.13,35.68-.55,7.25-.25,14.87,1.94,21.3,1.11,3.26-1.6,6.51-4.98,5.91-14.72-2.62-43.71-13.23-43.86-56.25-.08-21.46,9.68-41.64,25.75-55.86,12.86-11.38,28.94-30.74,36.52-60.37,1.08-4.2,6.87-4.66,8.49-.63Z"/><path class="cls-1" d="m336.6,282.96c-2.51-3.02-7.46-1.59-7.92,2.32-1.76,14.86-6.42,42.73-17.47,55.94-14.59,17.44-15.7,47.81-7.5,61.04.89,1.44,2.53,2.21,4.21,2.06,7.94-.73,31.91-5.2,44.8-32.46,5.86-12.4,7.4-26.39,5.29-39.94-2.12-13.59-7.59-32.29-21.42-48.95Z"/><path class="cls-1" d="m538.12,217.22c-1.98,0-3.68-.71-5.11-2.15-1.44-1.44-2.15-3.14-2.15-5.11V36.09c0-1.97.71-3.67,2.15-5.11,1.43-1.43,3.14-2.15,5.11-2.15h77.51c16.86,0,31.93,2.83,45.21,8.48,13.28,5.65,23.91,13.95,31.89,24.89,7.98,10.95,12.24,24.49,12.78,40.64.36,7.72.54,14.49.54,20.32s-.18,12.43-.54,19.78c-.72,16.87-4.84,30.82-12.38,41.85-7.54,11.03-17.81,19.2-30.82,24.49-13.01,5.29-28.12,7.94-45.35,7.94h-78.85Zm60.01-52.48h17.49c3.94,0,7.49-.76,10.63-2.29,3.14-1.52,5.69-3.9,7.67-7.13,1.97-3.23,3.05-7.35,3.23-12.38.36-5.2.58-9.87.67-13.99.09-4.13.09-8.3,0-12.51-.09-4.21-.32-8.75-.67-13.59-.36-7.53-2.74-13.01-7.13-16.42-4.4-3.41-9.65-5.11-15.74-5.11h-16.15v83.43Z"/><path class="cls-1" d="m734.58,217.22c-1.98,0-3.68-.71-5.11-2.15-1.44-1.44-2.15-3.14-2.15-5.11v-125.41c0-1.97.71-3.68,2.15-5.11,1.43-1.43,3.14-2.15,5.11-2.15h48.17c1.97,0,3.68.72,5.11,2.15,1.43,1.44,2.15,3.14,2.15,5.11v125.41c0,1.98-.72,3.68-2.15,5.11-1.44,1.44-3.14,2.15-5.11,2.15h-48.17Zm1.35-154.75c-1.98,0-3.68-.71-5.11-2.15-1.44-1.43-2.15-3.14-2.15-5.11V22.64c0-1.97.72-3.68,2.15-5.11s3.14-2.15,5.11-2.15h45.48c1.97,0,3.67.72,5.11,2.15,1.43,1.44,2.15,3.14,2.15,5.11v32.56c0,1.98-.72,3.68-2.15,5.11s-3.14,2.15-5.11,2.15h-45.48Z"/><path class="cls-1" d="m969,84.54c0-1.98-.74-3.68-2.15-5.12-1.44-1.42-3.14-2.15-5.12-2.15h-47.08c-1.98,0-3.68.74-5.12,2.15-1.44,1.44-2.15,3.14-2.15,5.12v8.32c-4.3-5.38-9.82-9.77-16.56-13.17-6.71-3.43-14.47-5.12-23.27-5.12s-16.05,1.25-22.88,3.77c-6.82,2.52-12.68,6.29-17.61,11.3-4.95,5.04-8.81,11.44-11.58,19.25-2.77,7.81-4.45,16.99-4.98,27.58-.17,4.5-.17,9.06,0,13.73.54,11.3,2.24,20.81,5.12,28.54,2.86,7.7,6.71,13.93,11.55,18.69,4.87,4.76,10.67,8.21,17.5,10.36s14.44,3.23,22.88,3.23c7.9,0,14.81-1.02,20.73-3.09,5.92-2.07,10.96-4.9,15.06-8.47v17.75c0,3.6-.4,6.54-1.19,8.89-.82,2.32-2.07,4.08-3.77,5.24-1.73,1.16-3.91,1.76-6.6,1.76-2.15,0-3.91-.23-5.27-.68-1.33-.45-2.46-1.22-3.34-2.29-.91-1.08-1.81-2.32-2.69-3.77-.74-1.61-1.67-2.92-2.83-3.91-1.19-.99-2.75-1.47-4.73-1.47h-52.46c-1.98,0-3.74.71-5.27,2.15-1.5,1.44-2.18,3.14-2.01,5.12.17,2.86,1.61,6.94,4.3,12.23,2.69,5.29,7.08,10.67,13.19,16.14,6.09,5.49,14.21,10.14,24.35,14.02,10.14,3.85,22.85,5.78,38.08,5.78,14.18,0,27.01-2.21,38.51-6.6,11.47-4.39,20.61-11.27,27.44-20.58,6.82-9.34,10.22-21.52,10.22-36.61l-.25-128.09Zm-52.89,72.2l-15.06,2.18-4.19.62c-.25.03-.48.2-.59.45l-1.81,3.65-6.99,14.21c-.34.65-1.33.57-1.53-.17l-4.39-15.88-5.38-19.51-4.19-15.18c-.2-.74.62-1.3,1.25-.88l5.1,3.43,25.26,16.93,12.88,8.64c.62.42.4,1.39-.34,1.5Z"/><path class="cls-1" d="m1000.74,217.22c-1.98,0-3.68-.71-5.11-2.15-1.44-1.44-2.15-3.14-2.15-5.11v-125.41c0-1.97.71-3.68,2.15-5.11,1.43-1.43,3.14-2.15,5.11-2.15h48.17c1.97,0,3.68.72,5.11,2.15,1.43,1.44,2.15,3.14,2.15,5.11v125.41c0,1.98-.72,3.68-2.15,5.11-1.44,1.44-3.14,2.15-5.11,2.15h-48.17Zm1.35-154.75c-1.98,0-3.68-.71-5.11-2.15-1.44-1.43-2.15-3.14-2.15-5.11V22.64c0-1.97.72-3.68,2.15-5.11s3.14-2.15,5.11-2.15h45.48c1.97,0,3.67.72,5.11,2.15,1.43,1.44,2.15,3.14,2.15,5.11v32.56c0,1.98-.72,3.68-2.15,5.11s-3.14,2.15-5.11,2.15h-45.48Z"/><path class="cls-1" d="m1167.06,217.22c-12.92,0-24.45-1.75-34.58-5.25-10.14-3.5-18.12-9.46-23.95-17.9-5.83-8.43-8.75-20-8.75-34.72v-34.99h-21.26c-1.98,0-3.68-.71-5.12-2.15-1.44-1.44-2.15-3.14-2.15-5.11v-32.56c0-1.97.71-3.68,2.15-5.11,1.44-1.43,3.14-2.15,5.12-2.15h21.26v-43.87c0-1.97.72-3.67,2.15-5.11,1.43-1.44,3.14-2.15,5.11-2.15h47.1c1.97,0,3.67.72,5.11,2.15,1.44,1.44,2.15,3.14,2.15,5.11v43.87h33.91c1.97,0,3.67.72,5.11,2.15,1.44,1.44,2.15,3.14,2.15,5.11v32.56c0,1.98-.72,3.68-2.15,5.11s-3.14,2.15-5.11,2.15h-33.91v29.6c0,4.13.94,7.4,2.83,9.82s4.8,3.63,8.75,3.63h24.49c1.97,0,3.67.72,5.11,2.15,1.44,1.44,2.15,3.14,2.15,5.11v35.26c0,1.98-.72,3.68-2.15,5.11s-3.14,2.15-5.11,2.15h-30.41Z"/><path class="cls-1" d="m1268.26,219.91c-10.23,0-19.29-1.88-27.18-5.65-7.9-3.77-14.04-8.88-18.44-15.34-4.4-6.46-6.59-13.73-6.59-21.8,0-13.09,5.34-23.37,16.01-30.82,10.67-7.44,24.98-12.69,42.93-15.74l28.53-4.57v-.27c0-4.66-.4-8.07-1.21-10.23-.81-2.15-3.1-3.23-6.86-3.23-2.52,0-4.53.5-6.06,1.48-1.53.99-3.19,2.38-4.98,4.17-1.98,1.98-4.49,2.96-7.54,2.96h-45.75c-1.79,0-3.27-.54-4.44-1.61s-1.66-2.51-1.48-4.31c.18-3.41,1.61-7.4,4.31-11.98,2.69-4.58,6.86-9.02,12.52-13.32,5.65-4.31,12.92-7.89,21.8-10.76,8.88-2.87,19.6-4.31,32.16-4.31s22.83,1.3,31.89,3.9c9.06,2.6,16.55,6.37,22.47,11.3,5.92,4.94,10.36,11.03,13.32,18.3s4.44,15.48,4.44,24.63v77.24c0,1.98-.72,3.68-2.15,5.11s-3.14,2.15-5.11,2.15h-47.1c-1.98,0-3.68-.71-5.11-2.15-1.44-1.44-2.15-3.14-2.15-5.11v-7.54c-2.51,3.59-5.7,6.69-9.55,9.28-3.86,2.6-8.21,4.62-13.05,6.06-4.84,1.44-10.05,2.15-15.61,2.15Zm18.57-39.83c3.59,0,6.68-.72,9.28-2.15,2.6-1.43,4.62-3.72,6.06-6.86,1.43-3.14,2.15-7.04,2.15-11.71v-.27l-15.88,3.5c-4.67,1.08-7.81,2.51-9.42,4.31-1.61,1.8-2.42,3.68-2.42,5.65,0,1.26.4,2.47,1.21,3.63.81,1.17,1.97,2.11,3.5,2.83,1.52.72,3.36,1.08,5.52,1.08Z"/><path class="cls-1" d="m1398.24,217.22c-1.98,0-3.68-.71-5.11-2.15-1.44-1.44-2.15-3.14-2.15-5.11V33.4c0-1.97.72-3.67,2.15-5.11,1.43-1.44,3.14-2.15,5.11-2.15h48.17c1.97,0,3.67.72,5.11,2.15,1.44,1.44,2.15,3.14,2.15,5.11v176.55c0,1.98-.72,3.68-2.15,5.11s-3.14,2.15-5.11,2.15h-48.17Z"/><path class="cls-1" d="m579.83,460.18c-1.98,0-3.68-.71-5.11-2.15-1.44-1.44-2.15-3.14-2.15-5.11v-123.26h-44.68c-1.98,0-3.68-.71-5.11-2.15-1.44-1.44-2.15-3.14-2.15-5.11v-43.33c0-1.97.71-3.67,2.15-5.11s3.14-2.15,5.11-2.15h157.71c1.97,0,3.68.72,5.11,2.15,1.43,1.44,2.15,3.14,2.15,5.11v43.33c0,1.98-.72,3.68-2.15,5.11-1.44,1.44-3.14,2.15-5.11,2.15h-44.67v123.26c0,1.98-.72,3.68-2.15,5.11-1.44,1.44-3.14,2.15-5.11,2.15h-53.83Z"/><path class="cls-1" d="m840.34,390.07c0,4.39-.17,8.66-.54,12.77-.88,13.11-4.33,24.15-10.36,33.13-6,8.98-14.67,15.69-25.96,20.19-11.3,4.47-25.2,6.71-41.71,6.71,6.17-4.9,13.9-14.13,16-30.66,1.25-9.82.54-22.2-3.65-37.77-.96-3.57-2.12-7.3-3.45-11.21,0,0-3.88-9.2-4.76-22.17-.25-3.65-.25-7.59.14-11.69.91-9.88,4.08-20.73,11.58-30.95,9.06,1.02,17.24,2.97,24.52,5.86,11.3,4.47,20.19,11.16,26.64,20.05,6.46,8.89,10.14,19.96,11.01,33.24.37,3.94.54,8.13.54,12.51Z"/><path class="cls-1" d="m904.94,462.87c-10.23,0-19.29-1.88-27.18-5.65-7.9-3.77-14.04-8.88-18.44-15.34-4.4-6.46-6.59-13.73-6.59-21.8,0-13.09,5.34-23.37,16.01-30.82,10.67-7.44,24.98-12.69,42.93-15.74l28.53-4.57v-.27c0-4.66-.4-8.07-1.21-10.23-.81-2.15-3.1-3.23-6.86-3.23-2.51,0-4.53.5-6.06,1.48-1.53.99-3.19,2.38-4.98,4.17-1.98,1.98-4.49,2.96-7.54,2.96h-45.75c-1.8,0-3.28-.54-4.44-1.61-1.17-1.08-1.66-2.51-1.48-4.31.18-3.41,1.61-7.4,4.31-11.98,2.69-4.58,6.86-9.02,12.51-13.32,5.65-4.31,12.92-7.89,21.8-10.76,8.88-2.87,19.6-4.31,32.16-4.31s22.83,1.3,31.89,3.9c9.06,2.6,16.55,6.37,22.47,11.3,5.92,4.94,10.36,11.03,13.32,18.3,2.96,7.27,4.44,15.48,4.44,24.63v77.24c0,1.98-.72,3.68-2.15,5.11-1.44,1.44-3.14,2.15-5.11,2.15h-47.1c-1.98,0-3.68-.71-5.11-2.15-1.44-1.44-2.15-3.14-2.15-5.11v-7.54c-2.51,3.59-5.7,6.69-9.55,9.28-3.86,2.6-8.21,4.62-13.05,6.06-4.84,1.44-10.05,2.15-15.61,2.15Zm18.57-39.83c3.59,0,6.68-.72,9.28-2.15,2.6-1.43,4.62-3.72,6.06-6.86,1.43-3.14,2.15-7.04,2.15-11.71v-.27l-15.88,3.5c-4.67,1.08-7.81,2.51-9.42,4.31-1.61,1.8-2.42,3.68-2.42,5.65,0,1.26.4,2.47,1.21,3.63.81,1.17,1.97,2.11,3.5,2.83,1.52.72,3.36,1.08,5.52,1.08Z"/><path class="cls-1" d="m1093.33,462.87c-12.92,0-23.91-1.3-32.97-3.9-9.06-2.6-16.42-5.92-22.07-9.96s-9.82-8.25-12.52-12.65c-2.69-4.39-4.13-8.38-4.31-11.98-.18-1.97.4-3.68,1.75-5.11,1.35-1.43,2.91-2.15,4.71-2.15h47.9c2.33.18,4.44.94,6.32,2.29,1.89,1.35,3.86,2.65,5.92,3.9,2.06,1.26,4.44,1.88,7.13,1.88,1.44,0,2.83-.36,4.17-1.08,1.35-.71,2.02-1.7,2.02-2.96,0-1.61-.5-3.05-1.48-4.31-.99-1.25-3.41-2.56-7.27-3.9-3.86-1.35-10.27-2.83-19.24-4.44-8.25-1.61-16.15-4.13-23.68-7.53-7.54-3.41-13.68-8.16-18.44-14.26-4.76-6.1-7.13-13.81-7.13-23.15,0-7.71,2.6-15.07,7.81-22.07,5.2-7,12.87-12.74,23.01-17.22,10.13-4.48,22.56-6.73,37.27-6.73,11.12,0,20.99,1.26,29.6,3.77,8.61,2.51,15.92,5.74,21.93,9.69,6.01,3.95,10.63,8.17,13.86,12.65,3.23,4.49,4.93,8.61,5.11,12.38.18,1.98-.36,3.68-1.61,5.11-1.26,1.44-2.69,2.15-4.31,2.15h-45.21c-2.52,0-4.76-.67-6.73-2.02-1.98-1.35-3.95-2.69-5.92-4.04-1.98-1.35-4.31-2.02-7-2.02-1.26,0-2.47.4-3.63,1.21-1.17.81-1.75,1.84-1.75,3.09,0,1.44.54,2.83,1.61,4.17,1.08,1.35,3.68,2.6,7.81,3.77,4.13,1.17,10.85,2.47,20.18,3.9,12.92,1.8,23.23,5.11,30.95,9.96,7.71,4.84,13.23,10.41,16.55,16.69,3.32,6.28,4.98,12.47,4.98,18.57,0,9.51-2.92,17.76-8.75,24.76-5.83,7-14.36,12.34-25.57,16.01-11.21,3.67-24.89,5.52-41.04,5.52Z"/><path class="cls-1" d="m1272.03,460.18c-12.92,0-24.45-1.75-34.58-5.25s-18.12-9.46-23.95-17.9c-5.83-8.43-8.75-20-8.75-34.72v-34.99h-21.26c-1.98,0-3.68-.71-5.12-2.15-1.44-1.44-2.15-3.14-2.15-5.11v-32.56c0-1.97.71-3.68,2.15-5.11,1.44-1.43,3.14-2.15,5.12-2.15h21.26v-43.87c0-1.97.72-3.67,2.15-5.11,1.43-1.44,3.14-2.15,5.11-2.15h47.1c1.97,0,3.67.72,5.11,2.15,1.44,1.44,2.15,3.14,2.15,5.11v43.87h33.91c1.97,0,3.67.72,5.11,2.15,1.44,1.44,2.15,3.14,2.15,5.11v32.56c0,1.98-.72,3.68-2.15,5.11s-3.14,2.15-5.11,2.15h-33.91v29.6c0,4.13.94,7.4,2.83,9.82s4.8,3.63,8.75,3.63h24.49c1.97,0,3.67.72,5.11,2.15,1.44,1.44,2.15,3.14,2.15,5.11v35.26c0,1.98-.72,3.68-2.15,5.11s-3.14,2.15-5.11,2.15h-30.41Z"/><path class="cls-1" d="m1400.94,462.87c-23.5,0-42.21-5.79-56.11-17.36-13.91-11.57-20.86-29.91-20.86-55.04v-1.88c.36-15.43,3.72-28.43,10.09-39.02,6.37-10.58,15.25-18.57,26.65-23.95,11.39-5.38,24.71-8.07,39.96-8.07,17.58,0,32.03,3.36,43.33,10.09,11.3,6.73,19.69,15.61,25.16,26.64,5.47,11.03,8.21,23.19,8.21,36.47v8.07c0,1.98-.72,3.68-2.15,5.11-1.44,1.44-3.14,2.15-5.12,2.15h-80.2v1.35c0,3.59.31,6.59.94,9.02.63,2.42,1.75,4.26,3.36,5.52,1.61,1.26,3.67,1.88,6.19,1.88,1.08,0,2.02-.18,2.83-.54.81-.36,1.61-.94,2.42-1.75s1.66-1.66,2.55-2.56c1.61-1.61,2.96-2.64,4.04-3.09,1.08-.45,2.69-.67,4.84-.67h50.87c1.79,0,3.27.54,4.44,1.61,1.16,1.08,1.66,2.51,1.48,4.31-.18,3.41-1.75,7.49-4.71,12.24-2.96,4.76-7.4,9.38-13.32,13.86-5.92,4.49-13.46,8.21-22.61,11.17-9.15,2.96-19.91,4.44-32.29,4.44Zm-11.03-90.43h21.53v-.27c0-3.94-.4-7.17-1.21-9.69-.81-2.51-2.02-4.35-3.63-5.52-1.61-1.16-3.59-1.75-5.92-1.75s-4.31.58-5.92,1.75c-1.61,1.17-2.83,3.01-3.63,5.52-.81,2.51-1.21,5.74-1.21,9.69v.27Z"/><path class="cls-1" d="m1503.48,460.18c-1.98,0-3.68-.71-5.11-2.15-1.44-1.44-2.15-3.14-2.15-5.11v-125.41c0-1.97.72-3.68,2.15-5.11,1.43-1.43,3.14-2.15,5.11-2.15h47.1c1.97,0,3.67.72,5.11,2.15,1.44,1.44,2.15,3.14,2.15,5.11v9.42c5.74-5.02,12.15-9.06,19.24-12.11,7.09-3.05,14.67-4.57,22.74-4.57h12.92c1.97,0,3.67.72,5.11,2.15,1.44,1.44,2.15,3.14,2.15,5.11v41.98c0,1.98-.72,3.68-2.15,5.11-1.44,1.44-3.14,2.15-5.11,2.15h-34.72c-5.38,0-9.42,1.35-12.11,4.04-2.69,2.69-4.04,6.73-4.04,12.11v60.01c0,1.98-.72,3.68-2.15,5.11s-3.14,2.15-5.11,2.15h-51.14Z"/><path class="cls-1" d="m1701.28,462.87c-12.92,0-23.91-1.3-32.97-3.9-9.06-2.6-16.42-5.92-22.07-9.96-5.65-4.04-9.82-8.25-12.51-12.65-2.69-4.39-4.13-8.38-4.31-11.98-.18-1.97.4-3.68,1.75-5.11,1.35-1.43,2.91-2.15,4.71-2.15h47.91c2.33.18,4.44.94,6.32,2.29,1.89,1.35,3.86,2.65,5.92,3.9,2.06,1.26,4.44,1.88,7.13,1.88,1.44,0,2.83-.36,4.17-1.08,1.35-.71,2.02-1.7,2.02-2.96,0-1.61-.5-3.05-1.48-4.31-.99-1.25-3.41-2.56-7.27-3.9-3.86-1.35-10.27-2.83-19.24-4.44-8.25-1.61-16.15-4.13-23.68-7.53-7.54-3.41-13.68-8.16-18.44-14.26-4.76-6.1-7.13-13.81-7.13-23.15,0-7.71,2.6-15.07,7.8-22.07,5.2-7,12.87-12.74,23.01-17.22,10.13-4.48,22.56-6.73,37.27-6.73,11.12,0,20.99,1.26,29.6,3.77,8.61,2.51,15.92,5.74,21.93,9.69,6.01,3.95,10.63,8.17,13.86,12.65,3.23,4.49,4.93,8.61,5.11,12.38.18,1.98-.36,3.68-1.61,5.11-1.26,1.44-2.69,2.15-4.31,2.15h-45.21c-2.52,0-4.76-.67-6.73-2.02-1.98-1.35-3.95-2.69-5.92-4.04-1.98-1.35-4.31-2.02-7-2.02-1.26,0-2.47.4-3.63,1.21-1.17.81-1.75,1.84-1.75,3.09,0,1.44.54,2.83,1.61,4.17,1.08,1.35,3.68,2.6,7.81,3.77,4.13,1.17,10.85,2.47,20.18,3.9,12.92,1.8,23.23,5.11,30.95,9.96,7.71,4.84,13.23,10.41,16.55,16.69,3.32,6.28,4.98,12.47,4.98,18.57,0,9.51-2.92,17.76-8.75,24.76-5.83,7-14.36,12.34-25.57,16.01-11.21,3.67-24.89,5.52-41.04,5.52Z"/><path class="cls-1" d="m764.32,419.66c.42,8.3-.99,15.32-3.34,21.23-4.08,10.25-11.04,17.07-16.34,21.07-9.23-1.05-17.44-2.97-24.58-5.8-11.33-4.5-19.99-11.21-25.99-20.19-6-8.98-9.46-20.02-10.36-33.13-.17-4.11-.25-8.38-.25-12.77s.08-8.58.25-12.51c.91-13.28,4.59-24.35,11.04-33.24,6.46-8.89,15.35-15.57,26.64-20.05,11.3-4.47,24.77-6.74,40.37-6.74,1.1,0,2.21,0,3.28.06-4.56,5.55-12.23,17.3-13.87,34.88-.48,4.73-.48,9.85.14,15.4.85,8.04,3,16.96,6.99,26.73,3.82,9.4,5.63,17.7,6,25.06Z"/></svg>